<?xml version="1.0" encoding="utf-8"?>
<!-- Generator: Adobe Illustrator 16.0.1, SVG Export Plug-In . SVG Version: 6.00 Build 0)  -->
<!DOCTYPE svg PUBLIC "-//W3C//DTD SVG 1.1//EN" "http://www.w3.org/Graphics/SVG/1.1/DTD/svg11.dtd">
<svg version="1.1" id="Icon" xmlns="http://www.w3.org/2000/svg" xmlns:xlink="http://www.w3.org/1999/xlink" x="0px" y="0px"
	 width="300px" height="300px" viewBox="0 0 300 300" enable-background="new 0 0 300 300" xml:space="preserve">
<linearGradient id="SVGID_1_" gradientUnits="userSpaceOnUse" x1="49.3799" y1="261.2197" x2="49.3799" y2="213.2197" gradientTransform="matrix(6.25 0 0 -6.25 -158.625 1632.625)">
	<stop  offset="0" style="stop-color:#FFFFFF"/>
	<stop  offset="1" style="stop-color:#EAEAEA"/>
</linearGradient>
<path fill="url(#SVGID_1_)" d="M300,262.5c0,20.706-16.794,37.5-37.5,37.5h-225C16.794,300,0,283.206,0,262.5v-225
	C0,16.794,16.794,0,37.5,0h225C283.206,0,300,16.794,300,37.5V262.5z"/>
<linearGradient id="SVGID_2_" gradientUnits="userSpaceOnUse" x1="49.8799" y1="238.2197" x2="49.8799" y2="219.2197" gradientTransform="matrix(6.25 0 0 -6.25 -158.625 1632.625)">
	<stop  offset="0" style="stop-color:#E16D35"/>
	<stop  offset="1" style="stop-color:#C93D1D"/>
</linearGradient>
<path display="none" fill="url(#SVGID_2_)" d="M237.5,248.237c0,7.882-6.381,14.263-14.263,14.263H83.013
	c-7.875,0-14.263-6.381-14.263-14.263v-90.225c0-7.881,6.388-14.263,14.263-14.263h140.225c7.882,0,14.263,6.381,14.263,14.263
	V248.237z"/>
<g display="none">
	<g display="inline">
		<path fill="#C93D1D" d="M85.35,175.106h12.856v60.263h9.432v-60.263h12.856v-13.669h-35.15v13.669H85.35z M145.131,209.894
			c0,5.45-0.519,9.369-1.562,11.75c-1.044,2.382-2.725,3.569-5.05,3.569c-2.043,0-3.462-1.088-4.262-3.257
			c-0.8-2.175-1.2-5.469-1.2-9.888v-30.237h-8.531v32.932c0,3.312,0.169,6.337,0.513,9.056c0.344,2.731,0.931,5.044,1.775,6.938
			c0.844,1.9,1.994,3.363,3.456,4.4c1.463,1.031,3.338,1.55,5.619,1.55c1.806,0,3.562-0.688,5.287-2.068
			c1.719-1.382,3.125-3.625,4.207-6.731h0.181v7.456h8.112v-53.531h-8.531v28.062H145.131z M187.338,187.112
			c-1.219-2.281-2.594-3.975-4.113-5.075c-1.524-1.1-3.062-1.656-4.625-1.656c-1.925,0-3.774,0.645-5.562,1.919
			c-1.787,1.275-3.193,3.294-4.237,6.057h-0.118v-26.919h-8.531v73.925h8.112v-6.837h0.118c0.919,2.969,2.288,5.074,4.088,6.318
			c1.8,1.237,3.844,1.862,6.125,1.862c1.562,0,3.1-0.55,4.625-1.656c1.519-1.106,2.894-2.794,4.112-5.075s2.213-5.193,2.976-8.75
			c0.762-3.55,1.144-7.781,1.144-12.681c0-4.9-0.382-9.125-1.144-12.682C189.55,192.312,188.557,189.394,187.338,187.112z
			 M182.5,215.068c-0.281,2.069-0.719,3.9-1.325,5.488c-0.6,1.587-1.35,2.844-2.25,3.774c-0.899,0.932-1.993,1.4-3.269,1.4
			c-1.244,0-2.325-0.463-3.25-1.4s-1.688-2.193-2.281-3.774c-0.606-1.588-1.044-3.419-1.325-5.488
			c-0.281-2.068-0.419-4.212-0.419-6.418c0-2.275,0.138-4.45,0.419-6.525c0.281-2.068,0.719-3.894,1.325-5.487
			c0.6-1.588,1.362-2.844,2.281-3.775c0.919-0.931,2-1.399,3.25-1.399c1.275,0,2.369,0.462,3.269,1.399
			c0.9,0.938,1.656,2.194,2.25,3.775c0.606,1.594,1.044,3.419,1.325,5.487c0.281,2.075,0.419,4.25,0.419,6.525
			C182.925,210.856,182.781,213,182.5,215.068z M215.969,223.506c-1.244,1.488-2.731,2.226-4.45,2.226
			c-2.406,0-4.25-1.069-5.524-3.213c-1.288-2.138-1.981-5.594-2.106-10.35H226.3c0.156-4.144-0.044-8.112-0.606-11.906
			s-1.469-7.175-2.737-10.144c-1.256-2.976-2.868-5.338-4.831-7.094c-1.963-1.763-4.269-2.645-6.906-2.645
			c-2.362,0-4.519,0.726-6.456,2.176c-1.95,1.449-3.619,3.438-5.019,5.956c-1.406,2.519-2.481,5.506-3.25,8.956
			c-0.763,3.456-1.145,7.175-1.145,11.182c0,4.144,0.375,7.943,1.113,11.387c0.743,3.457,1.793,6.419,3.156,8.906
			c1.362,2.488,3.024,4.4,4.987,5.744c1.962,1.35,4.169,2.019,6.612,2.019c3.519,0,6.531-1.381,9.013-4.138
			c2.475-2.762,4.318-7.355,5.524-13.769h-7.506C217.969,220.45,217.206,222.019,215.969,223.506z M204.281,199.331
			c0.219-1.306,0.606-2.55,1.144-3.725c0.544-1.175,1.263-2.163,2.163-2.956c0.906-0.794,2.031-1.188,3.399-1.188
			c2.081,0,3.632,0.969,4.656,2.899c1.019,1.938,1.726,4.763,2.132,8.487h-13.882C203.932,201.818,204.057,200.644,204.281,199.331z
			"/>
	</g>
</g>
<g display="none">
	<g display="inline">
		<path fill="#FFFFFF" d="M118.806,92.45l-13.112-35.906h-6.925l16.913,44.562v30.837h5.825v-30.837l16.731-44.562h-6.619
			L118.806,92.45z M167.4,84.369c-1.307-2.569-2.913-4.594-4.812-6.075c-1.9-1.475-4.113-2.213-6.645-2.213
			c-2.493,0-4.699,0.738-6.618,2.213c-1.919,1.481-3.531,3.506-4.838,6.075c-1.306,2.569-2.287,5.6-2.943,9.082
			c-0.656,3.481-0.981,7.231-0.981,11.244c0,4.012,0.325,7.744,0.981,11.194c0.65,3.45,1.631,6.462,2.943,9.031
			c1.307,2.568,2.919,4.575,4.838,6.019s4.125,2.163,6.618,2.163c2.531,0,4.75-0.719,6.645-2.163
			c1.894-1.444,3.506-3.45,4.812-6.019c1.306-2.569,2.287-5.582,2.943-9.031c0.65-3.45,0.981-7.182,0.981-11.194
			c0-4.013-0.331-7.763-0.981-11.244C169.693,89.969,168.706,86.938,167.4,84.369z M165.044,113.513
			c-0.513,2.575-1.213,4.719-2.119,6.443c-0.899,1.725-1.95,3.044-3.156,3.963c-1.2,0.912-2.475,1.375-3.825,1.375
			c-1.35,0-2.625-0.457-3.831-1.375c-1.206-0.913-2.256-2.231-3.156-3.963c-0.9-1.725-1.606-3.869-2.112-6.443
			c-0.513-2.569-0.769-5.506-0.769-8.819c0-3.306,0.256-6.25,0.769-8.819s1.212-4.731,2.112-6.494c0.9-1.763,1.95-3.1,3.156-4.013
			c1.2-0.913,2.481-1.375,3.831-1.375c1.351,0,2.625,0.457,3.825,1.375c1.206,0.913,2.257,2.25,3.156,4.013
			c0.906,1.762,1.606,3.925,2.119,6.494c0.506,2.569,0.763,5.506,0.763,8.819S165.55,110.944,165.044,113.513z M198.475,77.344
			v30.837c0,2.469-0.193,4.738-0.587,6.812c-0.388,2.082-0.969,3.894-1.744,5.438c-0.774,1.55-1.743,2.744-2.912,3.594
			c-1.169,0.844-2.544,1.269-4.138,1.269c-2,0-3.568-0.988-4.719-2.957c-1.144-1.969-1.713-4.65-1.713-8.025V77.35h-5.206v35.906
			c0,2.956,0.169,5.65,0.519,8.075c0.351,2.425,0.95,4.525,1.807,6.281c0.862,1.763,1.981,3.119,3.375,4.062
			c1.388,0.95,3.125,1.425,5.206,1.425c2.325,0,4.351-0.788,6.069-2.375s3.125-4.062,4.23-7.444h0.125v8.663h4.9V77.35h-5.213
			V77.344z"/>
	</g>
</g>
<g display="none">
	<g display="inline">
		<path fill="#FFFFFF" d="M85.35,181.356h12.856v60.263h9.432v-60.263h12.856v-13.669h-35.15v13.669H85.35z M145.131,216.144
			c0,5.45-0.519,9.369-1.562,11.75c-1.044,2.382-2.725,3.569-5.05,3.569c-2.043,0-3.462-1.088-4.262-3.257
			c-0.8-2.175-1.2-5.469-1.2-9.888v-30.237h-8.531v32.932c0,3.312,0.169,6.337,0.513,9.056c0.344,2.731,0.931,5.044,1.775,6.938
			c0.844,1.9,1.994,3.363,3.456,4.4c1.463,1.031,3.338,1.55,5.619,1.55c1.806,0,3.562-0.688,5.287-2.068
			c1.719-1.382,3.125-3.625,4.207-6.731h0.181v7.456h8.112v-53.531h-8.531v28.062H145.131z M187.338,193.362
			c-1.219-2.281-2.594-3.975-4.113-5.075c-1.524-1.1-3.062-1.656-4.625-1.656c-1.925,0-3.774,0.645-5.562,1.919
			c-1.787,1.275-3.193,3.294-4.237,6.057h-0.118v-26.919h-8.531v73.925h8.112v-6.837h0.118c0.919,2.969,2.288,5.074,4.088,6.318
			c1.8,1.237,3.844,1.862,6.125,1.862c1.562,0,3.1-0.55,4.625-1.656c1.519-1.106,2.894-2.794,4.112-5.075s2.213-5.193,2.976-8.75
			c0.762-3.55,1.144-7.781,1.144-12.681c0-4.9-0.382-9.125-1.144-12.682C189.55,198.562,188.557,195.644,187.338,193.362z
			 M182.5,221.318c-0.281,2.069-0.719,3.9-1.325,5.488c-0.6,1.587-1.35,2.844-2.25,3.774c-0.899,0.932-1.993,1.4-3.269,1.4
			c-1.244,0-2.325-0.463-3.25-1.4s-1.688-2.193-2.281-3.774c-0.606-1.588-1.044-3.419-1.325-5.488
			c-0.281-2.068-0.419-4.212-0.419-6.418c0-2.275,0.138-4.45,0.419-6.525c0.281-2.068,0.719-3.894,1.325-5.487
			c0.6-1.588,1.362-2.844,2.281-3.775c0.919-0.931,2-1.399,3.25-1.399c1.275,0,2.369,0.462,3.269,1.399
			c0.9,0.938,1.656,2.194,2.25,3.775c0.606,1.594,1.044,3.419,1.325,5.487c0.281,2.075,0.419,4.25,0.419,6.525
			C182.925,217.106,182.781,219.25,182.5,221.318z M215.969,229.756c-1.244,1.488-2.731,2.226-4.45,2.226
			c-2.406,0-4.25-1.069-5.524-3.213c-1.288-2.138-1.981-5.594-2.106-10.35H226.3c0.156-4.144-0.044-8.112-0.606-11.906
			s-1.469-7.175-2.737-10.144c-1.256-2.976-2.868-5.338-4.831-7.094c-1.963-1.763-4.269-2.645-6.906-2.645
			c-2.362,0-4.519,0.726-6.456,2.176c-1.95,1.449-3.619,3.438-5.019,5.956c-1.406,2.519-2.481,5.506-3.25,8.956
			c-0.763,3.456-1.145,7.175-1.145,11.182c0,4.144,0.375,7.943,1.113,11.387c0.743,3.457,1.793,6.419,3.156,8.906
			c1.362,2.488,3.024,4.4,4.987,5.744c1.962,1.35,4.169,2.019,6.612,2.019c3.519,0,6.531-1.381,9.013-4.138
			c2.475-2.762,4.318-7.355,5.524-13.769h-7.506C217.969,226.7,217.206,228.269,215.969,229.756z M204.281,205.581
			c0.219-1.306,0.606-2.55,1.144-3.725c0.544-1.175,1.263-2.163,2.163-2.956c0.906-0.794,2.031-1.188,3.399-1.188
			c2.081,0,3.632,0.969,4.656,2.899c1.019,1.938,1.726,4.763,2.132,8.487h-13.882C203.932,208.068,204.057,206.894,204.281,205.581z
			"/>
	</g>
</g>
<g display="none">
	<g display="inline">
		<path fill="#4C4C4C" d="M118.806,87.356L105.694,51.45h-6.925l16.913,44.562v30.837h5.825V96.013l16.731-44.562h-6.619
			L118.806,87.356z M167.4,79.281c-1.307-2.569-2.913-4.594-4.812-6.075c-1.9-1.475-4.113-2.212-6.645-2.212
			c-2.493,0-4.699,0.738-6.618,2.212c-1.919,1.481-3.531,3.506-4.838,6.075c-1.306,2.569-2.287,5.6-2.943,9.081
			c-0.656,3.481-0.981,7.231-0.981,11.244c0,4.012,0.325,7.744,0.981,11.193c0.65,3.45,1.631,6.463,2.943,9.031
			c1.307,2.569,2.919,4.575,4.838,6.019s4.125,2.163,6.618,2.163c2.531,0,4.75-0.719,6.645-2.163
			c1.894-1.444,3.506-3.45,4.812-6.019c1.306-2.568,2.287-5.581,2.943-9.031c0.65-3.45,0.981-7.181,0.981-11.193
			c0-4.013-0.331-7.763-0.981-11.244C169.693,84.881,168.706,81.85,167.4,79.281z M165.044,108.425
			c-0.513,2.575-1.213,4.719-2.119,6.444c-0.899,1.725-1.95,3.044-3.156,3.962c-1.2,0.913-2.475,1.375-3.825,1.375
			c-1.35,0-2.625-0.456-3.831-1.375c-1.206-0.912-2.256-2.231-3.156-3.962c-0.9-1.725-1.606-3.869-2.112-6.444
			c-0.513-2.568-0.769-5.506-0.769-8.818c0-3.307,0.256-6.25,0.769-8.819s1.212-4.731,2.112-6.494c0.9-1.763,1.95-3.1,3.156-4.013
			c1.2-0.913,2.481-1.375,3.831-1.375c1.351,0,2.625,0.456,3.825,1.375c1.206,0.913,2.257,2.25,3.156,4.013
			c0.906,1.762,1.606,3.925,2.119,6.494c0.506,2.569,0.763,5.506,0.763,8.819S165.55,105.856,165.044,108.425z M198.475,72.256
			v30.837c0,2.469-0.193,4.737-0.587,6.812c-0.388,2.081-0.969,3.894-1.744,5.438c-0.774,1.55-1.743,2.744-2.912,3.594
			c-1.169,0.844-2.544,1.269-4.138,1.269c-2,0-3.568-0.987-4.719-2.956c-1.144-1.969-1.713-4.65-1.713-8.025V72.263h-5.206v35.906
			c0,2.956,0.169,5.65,0.519,8.075c0.351,2.425,0.95,4.525,1.807,6.281c0.862,1.763,1.981,3.119,3.375,4.062
			c1.388,0.95,3.125,1.425,5.206,1.425c2.325,0,4.351-0.788,6.069-2.375c1.719-1.588,3.125-4.062,4.23-7.444h0.125v8.663h4.9V72.263
			h-5.213V72.256z"/>
	</g>
</g>
<path fill="#D2DE61" d="M150.006,79.641c-65.448,0-118.507,31.836-118.507,71.104c0,8.348,3.377,21.851,7.776,23.789
	c4.403,1.938,16.491,6.741,123.67-37.879c0,0-89.822,40.396-97.077,57.77c-2.497,5.959,21.27,25.936,84.138,25.936
	c65.441,0,118.495-31.093,118.495-70.356C268.501,110.732,215.447,79.641,150.006,79.641z"/>
</svg>
