<?xml version="1.0" encoding="utf-8"?>
<!-- Generator: Adobe Illustrator 18.0.0, SVG Export Plug-In . SVG Version: 6.00 Build 0)  -->
<!DOCTYPE svg PUBLIC "-//W3C//DTD SVG 1.1//EN" "http://www.w3.org/Graphics/SVG/1.1/DTD/svg11.dtd">
<svg version="1.1" id="Layer_1" xmlns="http://www.w3.org/2000/svg" xmlns:xlink="http://www.w3.org/1999/xlink" x="0px" y="0px"
	 viewBox="0 0 600 600" enable-background="new 0 0 600 600" xml:space="preserve">
<linearGradient id="SVGID_1_" gradientUnits="userSpaceOnUse" x1="226.36" y1="380.06" x2="226.36" y2="284.4601" gradientTransform="matrix(6.25 0 0 -6.25 -1116 2376.5)">
	<stop  offset="0" style="stop-color:#FFFFFF"/>
	<stop  offset="1" style="stop-color:#EAEAEA"/>
</linearGradient>
<path fill="url(#SVGID_1_)" d="M597.5,523.9c0,41.2-33.4,74.7-74.7,74.7H74.7C33.5,598.6,0,565.2,0,523.9V75.8
	C0,34.5,33.4,1.1,74.7,1.1h448.1c41.2,0,74.7,33.4,74.7,74.7V523.9L597.5,523.9z"/>
<path fill="#D2DE61" d="M300.4,159.2c-130.3,0-236,63.4-236,141.6c0,16.6,6.7,43.5,15.5,47.4c8.8,3.9,32.8,13.4,246.3-75.4
	c0,0-178.9,80.5-193.3,115.1c-5,11.9,42.4,51.7,167.6,51.7c130.3,0,236-61.9,236-140.1C536.3,221.1,430.7,159.2,300.4,159.2z"/>
</svg>
