<?xml version="1.0" encoding="utf-8"?>
<!-- Generator: Adobe Illustrator 16.0.4, SVG Export Plug-In . SVG Version: 6.00 Build 0)  -->
<!DOCTYPE svg PUBLIC "-//W3C//DTD SVG 1.1//EN" "http://www.w3.org/Graphics/SVG/1.1/DTD/svg11.dtd">
<svg version="1.1" xmlns="http://www.w3.org/2000/svg" xmlns:xlink="http://www.w3.org/1999/xlink" x="0px" y="0px" width="1584px"
	 height="200px" viewBox="0 0 1584 200" enable-background="new 0 0 1584 200" xml:space="preserve">
<g id="BACKGROUND">
	<rect y="-6" fill="#48986D" width="1584" height="792"/>
</g>
<g id="OVAL_OVERLAYS">
	
		<linearGradient id="SVGID_1_" gradientUnits="userSpaceOnUse" x1="-520.8057" y1="221.6895" x2="1574.6621" y2="221.6895" gradientTransform="matrix(0.654 -0.7565 1.1822 1.0221 112.1898 548.567)">
		<stop  offset="0" style="stop-color:#007D43"/>
		<stop  offset="0.5" style="stop-color:#007D43;stop-opacity:0"/>
		<stop  offset="1" style="stop-color:#007D43"/>
	</linearGradient>
	<path fill="url(#SVGID_1_)" d="M1404.128-416.053c203.256,175.729,61.232,673.037-317.218,1110.771
		C708.46,1132.453,236.894,1344.85,33.64,1169.124C-169.615,993.395-27.592,496.086,350.857,58.352
		C729.307-379.381,1200.873-591.778,1404.128-416.053z"/>
	
		<linearGradient id="SVGID_2_" gradientUnits="userSpaceOnUse" x1="-329.3159" y1="641.7578" x2="1766.2344" y2="641.7578" gradientTransform="matrix(0.8885 -0.4588 0.717 1.3886 201.9517 73.9607)">
		<stop  offset="0" style="stop-color:#007D43"/>
		<stop  offset="0.5" style="stop-color:#007D43;stop-opacity:0"/>
		<stop  offset="1" style="stop-color:#007D43"/>
	</linearGradient>
	<path fill="url(#SVGID_2_)" d="M2231.404,154.781c123.271,238.743-193.603,647.493-707.758,912.972
		c-514.155,265.48-1030.894,287.156-1154.164,48.418C246.212,877.429,563.085,468.677,1077.24,203.197
		C1591.395-62.282,2108.132-83.957,2231.404,154.781z"/>
	
		<linearGradient id="SVGID_3_" gradientUnits="userSpaceOnUse" x1="-973.9805" y1="636.4844" x2="1331.1084" y2="636.4844" gradientTransform="matrix(0.9919 0.1268 -0.1982 1.5501 592.4117 -593.6962)">
		<stop  offset="0" style="stop-color:#004824"/>
		<stop  offset="0.1238" style="stop-color:#005B2F;stop-opacity:0.7524"/>
		<stop  offset="0.2703" style="stop-color:#006D3A;stop-opacity:0.4593"/>
		<stop  offset="0.4005" style="stop-color:#007940;stop-opacity:0.199"/>
		<stop  offset="0.5" style="stop-color:#007D43;stop-opacity:0"/>
		<stop  offset="0.601" style="stop-color:#007A41;stop-opacity:0.2019"/>
		<stop  offset="0.7331" style="stop-color:#00733D;stop-opacity:0.4661"/>
		<stop  offset="0.8817" style="stop-color:#006636;stop-opacity:0.7635"/>
		<stop  offset="1" style="stop-color:#005A30"/>
	</linearGradient>
	<path fill="url(#SVGID_3_)" d="M1786.582,561.735c-37.488,293.171-579.705,465.386-1211.079,384.654
		C-55.871,865.66-537.313,562.553-499.827,269.386C-462.339-23.783,79.878-196,711.252-115.271
		C1342.625-34.54,1824.064,268.567,1786.582,561.735z"/>
	<linearGradient id="SVGID_4_" gradientUnits="userSpaceOnUse" x1="-137.1924" y1="755.9697" x2="1816.047" y2="-2.8972">
		<stop  offset="0" style="stop-color:#004E26"/>
		<stop  offset="0.0859" style="stop-color:#005A2D;stop-opacity:0.8283"/>
		<stop  offset="0.2472" style="stop-color:#006D39;stop-opacity:0.5056"/>
		<stop  offset="0.3905" style="stop-color:#007940;stop-opacity:0.219"/>
		<stop  offset="0.5" style="stop-color:#007D43;stop-opacity:0"/>
		<stop  offset="0.6095" style="stop-color:#007B42;stop-opacity:0.219"/>
		<stop  offset="0.7528" style="stop-color:#00763E;stop-opacity:0.5056"/>
		<stop  offset="0.9141" style="stop-color:#006D39;stop-opacity:0.8283"/>
		<stop  offset="1" style="stop-color:#016736"/>
	</linearGradient>
	<path fill="url(#SVGID_4_)" d="M1816.047-2.898c97.304,250.451-261.062,623.357-800.435,832.912
		C476.24,1039.57-39.888,1006.417-137.191,755.971C-234.494,505.52,123.872,132.612,663.243-76.943
		C1202.614-286.498,1718.742-253.346,1816.047-2.898z"/>
	<g>
	</g>
	<g>
	</g>
	<g>
	</g>
	<g>
	</g>
	<g>
	</g>
	<g>
	</g>
</g>
</svg>
