<?xml version="1.0" encoding="utf-8"?>
<!-- Generator: Adobe Illustrator 16.0.0, SVG Export Plug-In . SVG Version: 6.00 Build 0)  -->
<!DOCTYPE svg PUBLIC "-//W3C//DTD SVG 1.1//EN" "http://www.w3.org/Graphics/SVG/1.1/DTD/svg11.dtd">
<svg version="1.1" id="Layer_2" xmlns="http://www.w3.org/2000/svg" xmlns:xlink="http://www.w3.org/1999/xlink" x="0px" y="0px"
	 width="53.53px" height="38.75px" viewBox="0 0 53.53 38.75" enable-background="new 0 0 53.53 38.75" xml:space="preserve">
<g>
	<path fill="#88A392" d="M19.505,27.826c0.267-0.104,2.79-0.159,3.028,0c0.039,0.428-0.528,1.732-0.743,2.2
		c-0.157,0.343-0.238,1.316-0.171,1.8c0.1,0.729,0.514,1.943,0.571,2.628c0.058,0.686,0.163,1.657,0,2.171
		c-0.168,0.537-0.58,1.171-0.542,1.504c0.032,0.284,0.309,0.347,0.471,0.42c0.443,0.2,0.709,0.009,1.052,0.066
		c0.342,0.057,0.472,0.124,0.819,0.134c0.229,0.006,0.514-0.059,0.856-0.076c0.412-0.02,0.689-0.072,1.172,0.008
		c0.286,0.048,0.295-0.175,0.581-0.19c0.167-0.009,0.237-0.037,0.333-0.152c0.337-0.405-0.345-0.838-0.631-1.181
		c-0.286-0.342-0.012-1.261-0.012-1.833c0-0.571,0.024-3.861-0.03-4.719c0.663-0.523,1.939-2.202,2.401-2.538
		c0.69-0.071,1.868-0.27,2.686-0.443c0.853-0.18,3.208-0.511,3.635-0.337c0.146,0.06,0.879,1.366,1.208,1.823
		c0.359,0.5,0.571,1.8,0.914,2.2c0.343,0.4,0.191,0.261,0.843,0.714c0.471,0.329,0.842,1.6,1.185,2.057
		c0.343,0.457,0.578,0.497,0.714,0.886c0.086,0.243-0.703,0.542-0.678,1.393c0.021,0.735,0.687,0.62,0.711,0.906
		c0.024,0.286-0.148,0.479,0.165,0.619c0.257,0.114,0.545,0.024,0.888,0.082s0.4,0.314,0.857,0.371
		c0.457,0.057,0.771-0.042,1.057-0.042c0.286,0,0.828,0.257,1.114,0c0.179-0.162,0.243-0.686,0.028-1.072
		c-0.136-0.245-0.671-1.014-0.899-1.357s0.1-1.414,0.043-1.872c-0.057-0.457-1.571-2.914-1.8-3.542
		c-0.229-0.629-0.271-1.343-0.328-1.8c-0.057-0.458-0.203-1.323-0.329-1.814c-0.157-0.614,0.029-1.357,0.029-1.813
		c0-0.458-0.075-1.202,0.023-1.279c0.087-0.067,0.647,0.107,1.162,0.164c0.514,0.057,0.985,0.143,1.329,0.257
		c0.343,0.114,2.144,1.776,2.588,1.934c0.548,0.195,2.335,0.07,3.449-0.291c0.106-0.035-1.276-0.614-1.162-1.738
		c1.667-0.114,1.352,1.399,1.333,1.781c1.129-0.2,1.505-1.457,1.562-1.857c0.058-0.4,0.331-2.229-0.286-3.019
		c-0.38-0.485-1.328-1.344-1.728-1.667c-0.32-0.259-0.328-0.514-0.042-0.8c0.286-0.286,1.705-0.837,2.385-1.642
		c-1.872-0.301-4.814,0.271-5.181-0.444c-0.39-0.759,0.062-1.542-0.163-2.097c0.117-0.949,2.158-2.302,3.215-2.845
		c1.527-0.784,4.342-1.657,4.342-1.757c0-0.092-2.325-0.317-4.557,0.357c-1.917,0.579-4.215,2.22-4.385,2.143
		c-0.22-0.101-0.444-0.576-0.458-0.743c-0.018-0.228,3.444-1.916,3.387-2.03c-0.038-0.076-1.606,0.148-2.387,0.302
		c-0.411,0.081-1.343,0.271-1.814,0.428c-0.307-0.476-1.3-3.271-1.643-3.899c-0.343-0.628-1.657-3.028-1.829-3.2
		c0.1-0.544,0.471-1.157,0.343-1.486c-0.583,0.038-1.128,0.258-1.585,0.2c-0.457-0.057-1.027-1.174-1.328-1.399
		c-0.386,0.242-0.611,1.106-0.972,1.085c-0.5-0.029-1.01-0.988-1.357-1.486c-0.386,0.691-0.429,2.029-1.908,1.977
		c-1.435-0.034-2.542-1.495-2.949-1.663c-0.015,0.862,0.3,1.971,0.071,2.257c-0.528,0.114-1.604-0.472-2.085-0.529
		c-0.071,0.8,0.528,1.486,0.251,1.982C27.846,4.2,26.918,4,25.904,4.899c0.365,0.225,1.386,0.514,1.557,0.971
		s0.131,0.598,0.329,0.986c0.239,0.469,0.542,0.943,0.743,1.486c-0.019-0.007,0.521,0.457,0.819,1.133
		c0.143,0.324,0.126,0.842,0.314,1.263c0.157,0.35,0.539,0.363,0.715,0.756c0.228,0.509,0.167,1.141,0.409,1.679
		c0.138,0.308,0.412,0.446,0.548,0.75c0.291,0.648,0.309,1.303,0.839,2.144c0.834,1.323,1.812,2.502,2.945,2.322
		c0.277,0.103,0.481,0.559,0.007,0.83c-0.377,0.216-1.68,0.029-2.368-0.951c-0.328-0.467-0.879-1.111-1.228-1.728
		c-0.409-0.723-0.617-1.438-1.018-2.249c-0.132-0.266-0.383-0.457-0.511-0.722c-0.266-0.552-0.399-1.177-0.64-1.702
		c-0.161-0.353-0.414-0.573-0.56-0.898c-0.213-0.475-0.309-1.036-0.478-1.421c-0.209-0.475-0.598-0.805-0.722-1.079
		c-0.114-0.254-0.699-0.748-0.838-0.865c-0.222-0.183-2.835-0.896-4.647-0.979c-1.712-0.077-3.297,0.262-4.071,0.529
		c-1.156,0.399-2.747,1.488-3.556,1.814c-1.1,0.442-2.985,1.422-3.7,1.957c-1.471,1.1-2.873,3.062-3.157,3.571
		c-0.271,0.485-0.129,1.143-0.443,1.514c-0.696,0.822-0.999,3.792-1.243,4.547c-0.231,0.716-1.901,5.857-2.385,6.509
		c-0.743,1-1.711,1.189-2.285,1.614c-0.553,0.409-1.381,1.371-1.267,1.6c0.114,0.229,1.026-0.298,1.595-0.529
		c0.514-0.208,2.471-0.5,3.214-1.071c0.743-0.572,2.058-1.929,2.515-2.843c0.457-0.915,1.611-1.697,2.3-1.6
		c0.643,0.09,1.604,1.69,2.284,2.442c0.215,0.409,0.058,1.729,0.144,2.399c0.06,0.467,0.157,1.186,0.243,1.772
		c-0.229,0.457-1.162,1.2-1.219,1.599c-0.057,0.4,0.077,1.314-0.095,1.828c-0.171,0.515-0.757,1.759-0.495,2.077
		c0.181,0.219,0.374,0.078,0.609,0.095c0.257,0.019,0.505,0.257,0.733,0.257c0.228,0,0.457-0.114,0.743-0.058
		c0.286,0.058,0.343-0.104,0.477,0.058c0.133,0.352-0.277,0.856-0.048,1.047c0.23,0.192,0.521,0.018,0.857,0.152
		c0.286,0.114,0.095,0.257,0.4,0.311c0.394,0.069,0.657-0.053,0.838-0.053c0.181,0,0.172,0.119,0.686,0.104
		c0.467-0.013,0.819-0.047,1.162-0.047c0.343,0,0.743,0.028,1.112-0.143c0.458-0.214,0.068-1.057-0.16-1.343
		c-0.228-0.285-0.799-0.914-0.857-1.428c-0.057-0.514-0.434-2.479-0.571-3.181c-0.068-0.351,0.021-1.438,0.114-1.776
		c0.343-0.171,1.254-0.792,1.687-1.117C18.915,28.76,19.505,27.826,19.505,27.826z"/>
</g>
</svg>
